<?xml version="1.0" standalone="no"?>
<!DOCTYPE svg PUBLIC "-//W3C//DTD SVG 20010904//EN"
 "http://www.w3.org/TR/2001/REC-SVG-20010904/DTD/svg10.dtd">
<svg version="1.0" xmlns="http://www.w3.org/2000/svg"
 width="1280.000000pt" height="1280.000000pt" viewBox="0 0 1280.000000 1280.000000"
 preserveAspectRatio="xMidYMid meet">

<g transform="translate(0.000000,1280.000000) scale(0.100000,-0.100000)"
fill="#000000" stroke="none">
<path d="M0 6400 l0 -6400 6400 0 6400 0 0 6400 0 6400 -6400 0 -6400 0 0
-6400z m12290 6360 c0 -5 -4 -10 -10 -10 -5 0 -10 5 -10 10 0 6 5 10 10 10 6
0 10 -4 10 -10z m-4500 -164 c0 -11 -19 -15 -25 -6 -3 5 1 10 9 10 9 0 16 -2
16 -4z m-1000 -56 c0 -5 -4 -10 -10 -10 -5 0 -10 5 -10 10 0 6 5 10 10 10 6 0
10 -4 10 -10z m2610 0 c0 -5 -2 -10 -4 -10 -3 0 -8 5 -11 10 -3 6 -1 10 4 10
6 0 11 -4 11 -10z m-8860 -230 c0 -5 -7 -10 -16 -10 -8 0 -12 5 -9 10 3 6 10
10 16 10 5 0 9 -4 9 -10z m6260 -30 c0 -5 -5 -10 -11 -10 -5 0 -7 5 -4 10 3 6
8 10 11 10 2 0 4 -4 4 -10z m-1440 -280 c0 -5 -4 -10 -10 -10 -5 0 -10 5 -10
10 0 6 5 10 10 10 6 0 10 -4 10 -10z m6250 -80 c0 -5 -2 -10 -4 -10 -3 0 -8 5
-11 10 -3 6 -1 10 4 10 6 0 11 -4 11 -10z m-10530 -60 c0 -5 -7 -10 -16 -10
-8 0 -12 5 -9 10 3 6 10 10 16 10 5 0 9 -4 9 -10z m4880 0 c0 -5 -4 -10 -9
-10 -6 0 -13 5 -16 10 -3 6 1 10 9 10 9 0 16 -4 16 -10z m-3270 -40 c0 -5 -4
-10 -10 -10 -5 0 -10 5 -10 10 0 6 5 10 10 10 6 0 10 -4 10 -10z m2525 -39 c7
-12 -12 -24 -25 -16 -11 7 -4 25 10 25 5 0 11 -4 15 -9z m-4725 -15 c0 -3 -4
-8 -10 -11 -5 -3 -10 -1 -10 4 0 6 5 11 10 11 6 0 10 -2 10 -4z m4885 -6 c3
-5 1 -10 -4 -10 -6 0 -11 5 -11 10 0 6 2 10 4 10 3 0 8 -4 11 -10z m-368 -16
c-3 -3 -12 -4 -19 -1 -8 3 -5 6 6 6 11 1 17 -2 13 -5z m3463 -9 c0 -8 -4 -15
-9 -15 -13 0 -22 16 -14 24 11 11 23 6 23 -9z m-3255 -55 c-5 -8 -11 -8 -17
-2 -6 6 -7 16 -3 22 5 8 11 8 17 2 6 -6 7 -16 3 -22z m885 0 c0 -5 -2 -10 -4
-10 -3 0 -8 5 -11 10 -3 6 -1 10 4 10 6 0 11 -4 11 -10z m4700 0 c0 -5 -4 -10
-10 -10 -5 0 -10 5 -10 10 0 6 5 10 10 10 6 0 10 -4 10 -10z m-5615 -20 c-3
-5 -13 -6 -21 -3 -12 4 -13 8 -3 14 15 9 32 2 24 -11z m7415 16 c0 -11 -19
-15 -25 -6 -3 5 1 10 9 10 9 0 16 -2 16 -4z m-9420 -16 c0 -5 -4 -10 -10 -10
-5 0 -10 5 -10 10 0 6 5 10 10 10 6 0 10 -4 10 -10z m2090 1 c0 -16 -27 -31
-44 -25 -30 11 -16 34 21 34 13 0 23 -4 23 -9z m6470 -19 c0 -13 -12 -22 -22
-16 -10 6 -1 24 13 24 5 0 9 -4 9 -8z m-6370 -62 c0 -5 -7 -10 -15 -10 -8 0
-15 5 -15 10 0 6 7 10 15 10 8 0 15 -4 15 -10z m65 -60 c3 -5 -1 -10 -9 -10
-9 0 -16 5 -16 10 0 6 4 10 9 10 6 0 13 -4 16 -10z m-4680 -40 c3 -5 -1 -10
-9 -10 -9 0 -16 5 -16 10 0 6 4 10 9 10 6 0 13 -4 16 -10z m9785 -40 c0 -5 -4
-10 -9 -10 -6 0 -13 5 -16 10 -3 6 1 10 9 10 9 0 16 -4 16 -10z m-5180 -100
c0 -5 -2 -10 -4 -10 -3 0 -8 5 -11 10 -3 6 -1 10 4 10 6 0 11 -4 11 -10z m-97
-67 c-7 -2 -19 -2 -25 0 -7 3 -2 5 12 5 14 0 19 -2 13 -5z m3797 -13 c0 -5 -2
-10 -4 -10 -3 0 -8 5 -11 10 -3 6 -1 10 4 10 6 0 11 -4 11 -10z m-8815 -20 c3
-5 1 -10 -4 -10 -6 0 -11 5 -11 10 0 6 2 10 4 10 3 0 8 -4 11 -10z m11265
-550 c0 -5 -4 -10 -10 -10 -5 0 -10 5 -10 10 0 6 5 10 10 10 6 0 10 -4 10 -10z
m-5450 -110 c0 -5 -4 -10 -10 -10 -5 0 -10 5 -10 10 0 6 5 10 10 10 6 0 10 -4
10 -10z m1210 -144 c0 -3 -4 -8 -10 -11 -5 -3 -10 -1 -10 4 0 6 5 11 10 11 6
0 10 -2 10 -4z m5190 -67 c0 -5 -7 -9 -15 -9 -15 0 -20 12 -9 23 8 8 24 -1 24
-14z m-5593 -56 c5 -15 -21 -23 -38 -12 -12 8 -12 10 1 19 17 11 32 8 37 -7z
m-77 -107 c0 -3 -4 -8 -10 -11 -5 -3 -10 -1 -10 4 0 6 5 11 10 11 6 0 10 -2
10 -4z m410 -66 c0 -5 -7 -10 -15 -10 -8 0 -15 5 -15 10 0 6 7 10 15 10 8 0
15 -4 15 -10z m-2450 -10 c0 -5 -7 -10 -16 -10 -8 0 -12 5 -9 10 3 6 10 10 16
10 5 0 9 -4 9 -10z m3110 -4 c0 -3 -4 -8 -10 -11 -5 -3 -10 -1 -10 4 0 6 5 11
10 11 6 0 10 -2 10 -4z m-2855 -25 c7 -12 -12 -24 -25 -16 -11 7 -4 25 10 25
5 0 11 -4 15 -9z m2189 1 c-7 -4 18 -8 55 -10 36 -1 67 -6 69 -10 1 -5 15 -7
31 -4 16 2 47 -5 71 -17 23 -11 47 -18 52 -15 5 4 16 -3 24 -15 9 -12 19 -19
24 -16 5 3 24 -4 42 -16 74 -51 88 -59 96 -59 5 0 19 -13 32 -30 13 -16 29
-30 36 -30 7 0 18 -9 24 -20 6 -11 20 -20 31 -20 13 0 23 -8 26 -20 3 -12 12
-19 22 -18 10 2 15 -3 13 -14 -2 -11 3 -18 12 -18 18 0 72 -48 63 -56 -8 -9
18 -34 35 -34 8 1 6 6 -6 15 -15 11 -17 18 -9 26 8 8 15 5 24 -12 7 -13 12
-27 11 -30 -2 -8 47 -23 64 -21 6 1 16 -10 23 -24 10 -22 16 -25 41 -21 31 7
52 -9 25 -19 -13 -5 -11 -9 11 -20 14 -8 34 -14 43 -14 10 0 26 -8 37 -18 11
-10 25 -17 32 -14 6 2 12 -1 12 -6 0 -6 9 -8 20 -5 14 4 20 0 20 -11 0 -9 6
-13 14 -10 8 3 26 -2 39 -11 17 -11 27 -13 32 -5 4 7 12 5 22 -6 9 -8 25 -13
36 -10 13 3 27 -4 43 -22 19 -22 23 -24 24 -9 0 28 25 20 37 -13 8 -22 16 -28
28 -24 9 4 25 -2 36 -12 12 -11 23 -18 25 -16 2 1 16 2 32 2 21 0 24 -2 12
-10 -11 -8 -6 -10 20 -10 19 1 60 -6 90 -15 30 -10 62 -17 71 -17 9 0 22 -8
29 -18 13 -18 14 -18 26 -2 12 16 14 16 27 -3 9 -11 14 -22 12 -25 -2 -3 14
-6 36 -6 21 -1 39 2 39 7 0 5 5 9 10 9 6 0 10 -8 8 -17 -2 -12 2 -17 12 -14
28 7 100 0 100 -10 0 -14 83 -28 103 -18 10 6 21 8 25 5 3 -3 0 -6 -6 -6 -6 0
-9 -7 -5 -16 6 -15 7 -15 19 1 13 17 14 17 20 1 4 -10 13 -15 22 -11 8 3 20 1
27 -5 9 -8 14 -6 19 5 3 8 10 15 16 15 6 0 8 -4 5 -10 -9 -14 8 -13 23 2 9 9
12 6 12 -14 0 -16 -7 -28 -17 -32 -10 -3 -43 -23 -73 -45 -37 -27 -81 -47
-135 -61 -44 -12 -89 -30 -101 -41 -11 -10 -23 -19 -26 -19 -3 0 -29 16 -58
35 -36 24 -63 35 -89 35 -36 0 -199 -38 -254 -59 -63 -24 -125 -9 -222 55 -53
35 -119 51 -240 58 -22 2 -50 8 -62 14 -44 24 -99 15 -161 -28 -145 -98 -197
-103 -347 -28 l-105 51 -112 -27 c-139 -34 -289 -102 -332 -152 -43 -48 -88
-55 -140 -19 -31 21 -46 25 -75 20 -42 -7 -125 19 -196 60 -40 24 -51 26 -93
19 -26 -4 -58 -7 -71 -5 -27 3 -117 46 -126 60 -3 6 -27 13 -53 16 -26 3 -67
10 -90 16 -35 8 -58 6 -119 -11 -41 -11 -84 -18 -94 -15 -11 4 -45 29 -77 57
-31 27 -76 61 -100 75 -55 33 -75 25 -138 -57 -43 -54 -53 -62 -115 -82 -66
-21 -70 -21 -104 -5 -67 32 -104 23 -182 -44 -21 -18 -39 -26 -53 -22 -11 3
-53 40 -93 83 -79 85 -152 141 -208 159 -29 9 -45 8 -90 -7 -43 -14 -67 -16
-119 -9 -44 6 -76 5 -98 -3 -19 -7 -35 -10 -36 -8 -1 1 -12 20 -23 40 -20 35
-20 37 -4 52 20 18 51 21 51 5 0 -6 5 -7 13 -2 22 14 101 10 115 -7 11 -13 11
-12 3 7 -16 31 -14 33 22 33 37 0 58 15 50 36 -4 12 9 19 21 12 2 -2 13 8 25
22 19 22 22 23 33 9 7 -9 18 -14 25 -12 6 2 14 -1 18 -6 9 -15 52 -14 58 2 3
7 6 6 6 -5 1 -15 4 -15 29 -2 15 7 34 14 43 14 8 0 20 5 26 11 6 6 27 11 47
11 20 0 36 4 36 8 0 11 60 19 66 8 9 -14 34 -9 34 7 0 17 16 20 25 5 9 -14 21
-12 39 5 12 12 20 13 35 5 27 -14 34 -13 27 6 -4 12 -1 14 13 9 11 -3 22 -1
26 5 3 5 11 10 16 10 6 0 8 -3 6 -7 -3 -5 17 -6 44 -5 27 2 47 8 44 12 -8 12
24 21 51 14 13 -3 30 -2 37 4 7 6 38 10 69 9 34 -1 62 4 72 12 13 11 16 11 16
0 1 -10 4 -9 14 3 7 10 16 15 19 12 3 -3 11 -3 17 1 8 5 8 11 -1 21 -9 11 -9
14 1 14 6 0 14 -9 17 -20 7 -27 23 -26 23 1 0 19 4 21 30 15 18 -3 29 -2 25 3
-9 15 15 24 30 11 8 -7 15 -7 19 -1 4 6 13 8 21 4 9 -3 15 1 15 11 0 15 28 22
68 17 6 -1 12 3 12 8 0 6 17 9 40 7 22 -2 40 0 40 6 0 5 4 7 8 4 5 -3 22 -1
38 4 27 8 27 8 5 9 -32 1 -18 15 17 17 53 2 63 4 58 12 -2 4 7 9 22 10 15 1
39 11 53 21 23 17 26 18 37 2 10 -14 11 -14 11 0 1 18 48 65 57 57 3 -3 16 4
29 16 43 40 55 47 65 41 6 -4 22 7 36 24 14 17 35 31 45 31 11 0 17 4 14 10
-3 5 6 12 20 16 14 3 25 9 25 13 0 9 95 51 114 51 7 0 16 9 19 20 3 13 14 20
29 20 12 1 34 7 47 14 13 7 32 11 42 9 11 -3 21 1 25 10 4 11 15 14 39 10 22
-3 41 0 56 11 13 9 30 16 39 16 10 0 11 -3 4 -8z m-2894 -17 c0 -8 -6 -15 -14
-15 -17 0 -28 14 -19 24 12 12 33 6 33 -9z m3920 -195 c0 -5 -5 -10 -11 -10
-5 0 -7 5 -4 10 3 6 8 10 11 10 2 0 4 -4 4 -10z m1872 -65 c0 -5 -5 -11 -11
-13 -6 -2 -11 4 -11 13 0 9 5 15 11 13 6 -2 11 -8 11 -13z m1173 -34 c3 -5 1
-12 -5 -16 -5 -3 -10 1 -10 9 0 18 6 21 15 7z m-2620 -31 c3 -5 -1 -10 -9 -10
-9 0 -16 5 -16 10 0 6 4 10 9 10 6 0 13 -4 16 -10z m-4615 -30 c0 -5 -4 -10
-10 -10 -5 0 -10 5 -10 10 0 6 5 10 10 10 6 0 10 -4 10 -10z m1680 -30 c0 -5
-7 -10 -16 -10 -8 0 -12 5 -9 10 3 6 10 10 16 10 5 0 9 -4 9 -10z m-169 -33
c-13 -13 -26 -3 -16 12 3 6 11 8 17 5 6 -4 6 -10 -1 -17z m-4566 -6 c3 -5 1
-12 -5 -16 -5 -3 -10 1 -10 9 0 18 6 21 15 7z m936 -34 c-13 -13 -26 -3 -16
12 3 6 11 8 17 5 6 -4 6 -10 -1 -17z m3109 -11 c0 -3 -4 -8 -10 -11 -5 -3 -10
-1 -10 4 0 6 5 11 10 11 6 0 10 -2 10 -4z m710 -36 c0 -5 -4 -10 -10 -10 -5 0
-10 5 -10 10 0 6 5 10 10 10 6 0 10 -4 10 -10z m-2020 -4 c0 -3 -4 -8 -10 -11
-5 -3 -10 -1 -10 4 0 6 5 11 10 11 6 0 10 -2 10 -4z m1770 -16 c0 -5 -4 -10
-10 -10 -5 0 -10 5 -10 10 0 6 5 10 10 10 6 0 10 -4 10 -10z m-905 -20 c-3 -5
-10 -10 -16 -10 -5 0 -9 5 -9 10 0 6 7 10 16 10 8 0 12 -4 9 -10z m4785 6 c0
-11 -19 -15 -25 -6 -3 5 1 10 9 10 9 0 16 -2 16 -4z m-4500 -90 c-13 -13 -35
7 -25 24 5 8 11 8 21 -1 10 -8 12 -15 4 -23z m225 -24 c-3 -3 -11 0 -18 7 -9
10 -8 11 6 5 10 -3 15 -9 12 -12z m3925 -7 c0 -8 -4 -15 -10 -15 -5 0 -10 7
-10 15 0 8 5 15 10 15 6 0 10 -7 10 -15z m-4163 -61 c-3 -3 -12 -4 -19 -1 -8
3 -5 6 6 6 11 1 17 -2 13 -5z m-157 -14 c0 -5 -4 -10 -10 -10 -5 0 -10 5 -10
10 0 6 5 10 10 10 6 0 10 -4 10 -10z m4660 -49 c0 -12 -28 -22 -34 -12 -3 5
-3 11 1 15 9 9 33 7 33 -3z m130 -121 c0 -5 -5 -10 -11 -10 -5 0 -7 5 -4 10 3
6 8 10 11 10 2 0 4 -4 4 -10z m35 -10 c3 -5 1 -10 -4 -10 -6 0 -11 5 -11 10 0
6 2 10 4 10 3 0 8 -4 11 -10z m899 -11 c-17 -19 -84 -59 -99 -59 -14 0 11 24
53 51 54 34 73 37 46 8z m-651 -5 c7 -7 -20 -29 -71 -57 -28 -16 -38 -17 -63
-7 -42 18 -39 46 6 47 23 1 35 -4 35 -12 0 -18 59 1 67 21 6 15 16 18 26 8z
m-4279 -1977 c27 -7 51 -18 54 -25 7 -23 -29 -24 -78 -3 -59 25 -64 26 -56 5
5 -13 1 -15 -21 -11 -15 3 -36 1 -47 -5 -14 -7 -17 -7 -14 3 3 10 71 40 108
48 3 0 27 -5 54 -12z m172 -25 c109 -80 180 -225 168 -344 -12 -114 -28 -199
-37 -205 -7 -4 -8 0 -2 13 4 10 10 69 12 129 4 98 2 114 -16 143 -11 17 -27
32 -35 32 -7 0 -19 7 -26 15 -11 13 -7 15 29 15 40 0 40 1 29 25 -6 14 -16 25
-21 25 -5 0 -4 -7 3 -15 9 -10 9 -15 1 -15 -11 0 -15 13 -12 37 2 15 -90 110
-131 137 -16 10 -34 16 -43 13 -15 -7 -29 6 -18 17 15 15 63 4 99 -22z m-356
-23 c0 -5 -9 -9 -20 -9 -25 0 -58 -18 -80 -43 -15 -18 -16 -17 -18 7 -1 16 3
26 11 26 8 0 31 9 53 19 38 19 54 19 54 0z m150 1 c0 -5 -4 -10 -10 -10 -5 0
-10 5 -10 10 0 6 5 10 10 10 6 0 10 -4 10 -10z m125 -30 c3 -5 -1 -10 -10 -10
-9 0 -13 5 -10 10 3 6 8 10 10 10 2 0 7 -4 10 -10z m-325 -20 c0 -5 -4 -10
-10 -10 -5 0 -10 5 -10 10 0 6 5 10 10 10 6 0 10 -4 10 -10z m414 -7 c3 -7 12
-13 20 -13 7 0 21 -11 30 -25 21 -32 12 -32 -22 1 -15 14 -39 28 -55 31 -38 8
-42 20 -7 20 16 0 31 -6 34 -14z m-499 -4 c4 -6 4 -13 0 -17 -3 -3 -10 0 -15
7 -6 11 -11 9 -21 -8 -8 -11 -21 -21 -29 -21 -10 1 -6 9 13 25 31 27 42 30 52
14z m-110 -69 c-10 -11 -21 -18 -23 -15 -3 3 3 12 14 20 27 20 30 18 9 -5z
m-79 -112 c-18 -26 -22 -17 -5 14 6 11 13 17 16 15 3 -3 -2 -16 -11 -29z m774
-26 c0 -15 -2 -15 -10 -2 -13 20 -13 33 0 25 6 -3 10 -14 10 -23z m1100 -42
c23 -7 36 -6 40 1 14 22 142 -20 195 -65 34 -29 27 -35 -11 -9 -14 9 0 -9 30
-41 31 -31 65 -75 77 -97 11 -22 26 -42 33 -45 8 -3 12 -13 10 -22 -3 -9 7
-51 21 -92 40 -116 52 -169 60 -250 4 -41 13 -85 21 -97 18 -29 18 -33 -6 -33
-15 0 -20 -7 -20 -29 0 -27 4 -30 84 -55 104 -32 137 -59 181 -146 19 -37 42
-70 51 -74 13 -5 14 -10 6 -18 -8 -8 0 -25 29 -64 107 -141 242 -633 259 -939
4 -71 10 -141 14 -155 7 -23 6 -23 -7 -8 -10 12 -16 57 -20 145 -9 197 -72
505 -146 710 -69 194 -126 276 -192 276 -21 0 -29 5 -29 18 0 15 6 17 30 13
17 -4 30 -3 30 2 -1 17 -27 44 -43 44 -13 0 -15 7 -11 28 6 31 -22 83 -58 106
-13 8 -52 22 -88 31 -54 14 -190 72 -190 81 0 2 17 0 38 -2 l37 -5 -27 21
c-28 21 -38 50 -18 50 6 0 10 -6 10 -14 0 -16 27 -29 34 -17 3 4 -4 15 -16 25
-16 14 -19 25 -14 54 3 21 6 45 6 56 0 12 5 16 15 12 11 -4 15 1 15 19 0 18
-4 23 -15 19 -11 -5 -15 1 -15 21 0 14 4 24 9 21 15 -10 -39 178 -73 250 -60
128 -142 197 -251 209 -33 4 -66 11 -74 15 -13 7 -153 -21 -204 -42 -41 -16
-143 -133 -177 -202 -49 -102 -62 -166 -69 -361 l-6 -180 -56 -11 c-60 -12
-104 -36 -120 -65 -8 -16 -6 -19 10 -19 15 0 19 -5 14 -16 -4 -11 -14 -14 -31
-11 -30 6 -52 -1 -52 -15 0 -6 9 -8 20 -5 32 8 32 -9 0 -41 -17 -18 -28 -37
-24 -45 7 -19 -43 -70 -59 -60 -7 3 -39 26 -72 49 -34 24 -110 68 -169 98
-117 60 -119 76 -4 25 62 -27 173 -91 236 -135 22 -16 23 -15 42 30 12 25 25
46 30 46 6 0 10 5 10 10 0 6 -6 10 -13 10 -7 0 -18 5 -25 12 -9 9 -5 16 18 30
32 19 40 38 16 38 -8 0 -18 5 -22 11 -5 8 1 10 19 7 34 -7 55 15 37 37 -7 8
-23 15 -36 15 -13 0 -24 5 -24 11 0 7 10 9 28 4 41 -10 102 -13 96 -3 -3 4
-14 8 -25 8 -31 0 -17 24 17 30 27 5 28 6 9 18 -17 10 -17 11 -3 12 9 0 29 12
43 27 14 15 25 23 25 18 0 -21 20 21 20 43 0 14 6 22 18 22 14 0 17 9 17 56 0
37 -5 58 -15 64 -13 8 -13 10 1 10 12 0 19 13 24 47 23 156 149 359 251 408
25 11 33 20 24 25 -17 10 5 24 26 16 9 -3 25 -1 37 6 22 12 21 12 -8 19 -24 5
-19 7 25 8 30 0 71 -3 90 -9z m290 -115 c11 -13 10 -14 -4 -9 -9 3 -16 10 -16
15 0 13 6 11 20 -6z m-1378 -324 c-11 -39 -37 -93 -60 -127 l-41 -59 62 -64
c48 -50 53 -57 22 -34 -22 17 -53 45 -69 62 l-29 30 26 40 c15 23 27 45 27 50
0 6 11 26 24 45 28 41 51 151 42 199 -3 18 -3 37 1 41 18 17 13 -117 -5 -183z
m1518 58 c0 -6 -4 -7 -10 -4 -5 3 -10 11 -10 16 0 6 5 7 10 4 6 -3 10 -11 10
-16z m30 -94 c7 -9 8 -15 2 -15 -5 0 -12 7 -16 15 -3 8 -4 15 -2 15 2 0 9 -7
16 -15z m30 -56 c0 -6 -4 -7 -10 -4 -5 3 -10 11 -10 16 0 6 5 7 10 4 6 -3 10
-11 10 -16z m-962 -87 c2 -7 -2 -10 -12 -6 -9 3 -16 11 -16 16 0 13 23 5 28
-10z m972 -6 c0 -3 -4 -8 -10 -11 -5 -3 -10 -1 -10 4 0 6 5 11 10 11 6 0 10
-2 10 -4z m-1013 -22 c-3 -3 -12 -4 -19 -1 -8 3 -5 6 6 6 11 1 17 -2 13 -5z
m-57 -24 c0 -5 -5 -10 -11 -10 -5 0 -7 5 -4 10 3 6 8 10 11 10 2 0 4 -4 4 -10z
m17 -56 c-3 -3 -12 -4 -19 -1 -8 3 -5 6 6 6 11 1 17 -2 13 -5z m-1617 -164
c-8 -5 -19 -10 -25 -10 -5 0 -3 5 5 10 8 5 20 10 25 10 6 0 3 -5 -5 -10z m-44
-19 c-3 -5 -18 -12 -33 -16 -15 -3 -62 -24 -105 -46 -87 -43 -112 -51 -59 -18
37 23 181 88 194 89 5 0 6 -4 3 -9z m2884 -62 c0 -5 -4 -9 -10 -9 -5 0 -10 7
-10 16 0 8 5 12 10 9 6 -3 10 -10 10 -16z m-1390 -59 c0 -5 -4 -10 -10 -10 -5
0 -10 5 -10 10 0 6 5 10 10 10 6 0 10 -4 10 -10z m-90 -1560 c0 -5 -5 -10 -11
-10 -5 0 -7 5 -4 10 3 6 8 10 11 10 2 0 4 -4 4 -10z m57 -36 c-3 -3 -12 -4
-19 -1 -8 3 -5 6 6 6 11 1 17 -2 13 -5z m69 -10 c-3 -9 -6 -22 -6 -30 0 -8 -4
-14 -10 -14 -11 0 -14 43 -3 53 12 13 25 7 19 -9z m-116 -44 c0 -5 -2 -10 -4
-10 -3 0 -8 5 -11 10 -3 6 -1 10 4 10 6 0 11 -4 11 -10z m1823 -117 c82 -137
158 -331 156 -398 0 -11 -9 12 -19 50 -40 150 -102 285 -169 369 -31 39 -38
56 -23 56 4 0 29 -35 55 -77z m162 -723 c3 -5 1 -10 -4 -10 -6 0 -11 5 -11 10
0 6 2 10 4 10 3 0 8 -4 11 -10z m231 -187 c-10 -10 -19 5 -10 18 6 11 8 11 12
0 2 -7 1 -15 -2 -18z m91 -6 c4 -7 0 -8 -11 -4 -10 4 -22 7 -27 7 -5 0 -9 4
-9 9 0 12 38 2 47 -12z m-5757 -209 c0 -6 7 -19 16 -29 15 -17 15 -18 -4 -16
-11 0 -18 5 -16 9 3 5 -2 11 -10 14 -20 8 -21 34 -1 34 8 0 15 -5 15 -12z
m6740 -28 c0 -10 -81 -60 -98 -60 -28 0 -8 23 41 45 60 29 57 28 57 15z
m-6760 -40 c0 -5 -2 -10 -4 -10 -3 0 -8 5 -11 10 -3 6 -1 10 4 10 6 0 11 -4
11 -10z m147 -3 c4 -7 19 -18 33 -24 23 -11 23 -12 -10 -6 -19 3 -40 12 -46
19 -6 8 -14 11 -17 7 -4 -3 -7 -1 -7 5 0 16 37 15 47 -1z m8600 -2287 c21 -38
43 -68 48 -67 6 2 27 34 48 70 57 99 67 91 67 -48 0 -70 -4 -115 -10 -115 -6
0 -10 37 -10 90 0 50 -3 90 -7 90 -5 0 -22 -26 -39 -58 -40 -75 -57 -74 -103
3 l-36 60 -3 -92 c-2 -74 -6 -93 -17 -93 -12 0 -15 21 -15 115 0 107 1 115 19
115 14 0 31 -20 58 -70z m948 28 c17 -42 65 -178 65 -185 0 -2 -6 -3 -14 -3
-7 0 -16 14 -19 30 -6 29 -8 30 -66 30 -57 0 -59 -1 -70 -30 -5 -16 -15 -30
-20 -30 -14 0 -15 -5 13 76 43 125 57 154 76 154 12 0 24 -15 35 -42z m155
-73 c0 -96 -3 -115 -15 -115 -12 0 -15 19 -15 115 0 96 3 115 15 115 12 0 15
-19 15 -115z m-640 70 c0 -20 5 -25 25 -25 14 0 25 -4 25 -10 0 -5 -11 -10
-25 -10 -25 0 -26 -2 -23 -57 3 -55 4 -58 31 -61 15 -2 27 -8 27 -13 0 -12
-50 -12 -69 0 -9 6 -16 32 -19 70 -3 43 -8 61 -18 61 -8 0 -14 5 -14 10 0 6 7
10 15 10 9 0 15 9 15 25 0 16 6 25 15 25 9 0 15 -9 15 -25z m-124 -33 c15 -10
34 -47 34 -66 0 -13 -12 -16 -60 -16 -44 0 -60 -4 -60 -14 0 -24 28 -39 65
-33 35 6 48 -6 19 -17 -21 -8 -67 -7 -80 2 -37 24 -43 87 -13 126 20 26 69 36
95 18z m338 -14 c17 -24 23 -138 7 -138 -5 0 -11 5 -13 11 -3 9 -9 9 -25 0
-45 -23 -93 -8 -93 30 0 29 29 49 71 49 36 0 40 2 37 23 -3 25 -50 36 -73 17
-8 -7 -15 -7 -19 -1 -9 14 23 30 61 31 22 0 37 -7 47 -22z"/>
<path d="M4930 9389 c-13 -9 -12 -10 3 -5 20 6 23 -9 3 -17 -8 -3 -20 1 -26 9
-14 16 -30 19 -30 4 0 -5 7 -10 15 -10 9 0 18 -7 21 -15 4 -8 13 -15 22 -15 8
0 12 3 9 7 -4 3 -2 12 5 20 15 19 -2 36 -22 22z"/>
<path d="M4820 9329 c0 -5 5 -7 10 -4 6 3 10 8 10 11 0 2 -4 4 -10 4 -5 0 -10
-5 -10 -11z"/>
<path d="M4680 9300 c0 -5 5 -10 10 -10 6 0 10 5 10 10 0 6 -4 10 -10 10 -5 0
-10 -4 -10 -10z"/>
<path d="M4637 9293 c-4 -3 -7 -11 -7 -17 0 -6 5 -5 12 2 6 6 9 14 7 17 -3 3
-9 2 -12 -2z"/>
<path d="M6930 6800 c0 -6 7 -10 15 -10 8 0 15 2 15 4 0 2 -7 6 -15 10 -8 3
-15 1 -15 -4z"/>
<path d="M7267 6183 c-9 -14 -1 -47 12 -51 8 -3 10 4 5 25 -8 34 -10 37 -17
26z"/>
<path d="M6388 6120 c-11 -38 -10 -56 3 -43 6 6 9 23 7 39 l-3 29 -7 -25z"/>
<path d="M6330 6060 c0 -5 5 -10 10 -10 6 0 10 5 10 10 0 6 -4 10 -10 10 -5 0
-10 -4 -10 -10z"/>
<path d="M6378 6040 c-7 -24 -3 -38 8 -28 3 4 4 17 2 30 l-3 23 -7 -25z"/>
<path d="M12213 528 c-12 -29 -18 -57 -16 -61 5 -8 89 -5 87 3 -5 29 -37 110
-43 110 -5 0 -17 -24 -28 -52z"/>
<path d="M11592 508 c-25 -25 -13 -38 33 -38 30 0 45 4 45 13 0 19 -21 37 -45
37 -12 0 -26 -5 -33 -12z"/>
<path d="M11908 438 c-9 -23 3 -38 31 -38 28 0 67 31 54 43 -11 12 -81 7 -85
-5z"/>
</g>
</svg>
